<svg width="250" height="25" viewBox="0 0 250 25" fill="none" xmlns="http://www.w3.org/2000/svg">
<path d="M161.937 16.5495C162.078 16.5495 162.163 16.634 162.163 16.775V17.5078C162.163 17.6488 162.078 17.7333 161.937 17.7333H159.161C156.99 17.7333 155.51 16.3663 155.51 14.1818V10.1792C155.51 7.99475 156.948 6.62769 159.161 6.62769H161.81C161.951 6.62769 162.036 6.71224 162.036 6.85318V7.58604C162.036 7.72697 161.951 7.81153 161.81 7.81153H159.133C157.639 7.81153 156.793 8.81217 156.793 10.1651V14.2381C156.793 15.5911 157.639 16.5918 159.133 16.5918H161.937V16.5495Z" fill="white"/>
<path d="M172.761 6.59961C172.902 6.59961 172.986 6.68417 172.986 6.82511V17.4938C172.986 17.6348 172.902 17.7193 172.761 17.7193H171.901C171.788 17.7193 171.676 17.6348 171.676 17.4938V12.6316H167.124V17.4938C167.124 17.6348 167.039 17.7193 166.926 17.7193H166.067C165.926 17.7193 165.841 17.6348 165.841 17.4938V6.82511C165.841 6.68417 165.926 6.59961 166.067 6.59961H166.926C167.039 6.59961 167.124 6.68417 167.124 6.82511V11.4618H171.676V6.82511C171.676 6.68417 171.774 6.59961 171.901 6.59961H172.761Z" fill="white"/>
<path d="M183.754 17.7053C183.599 17.7053 183.514 17.6348 183.486 17.508L182.739 15.1544H178.497L177.764 17.508C177.736 17.6489 177.651 17.7053 177.496 17.7053H176.651C176.51 17.7053 176.467 17.6207 176.496 17.508L179.92 6.81108C179.977 6.67014 180.061 6.61377 180.202 6.61377H181.062C181.217 6.61377 181.301 6.68424 181.344 6.81108L184.797 17.508C184.825 17.6207 184.783 17.7053 184.642 17.7053H183.754ZM182.415 14.041L180.611 8.34726L178.835 14.041H182.415Z" fill="white"/>
<path d="M189.391 6.59961C189.504 6.59961 189.588 6.68417 189.588 6.82511V16.5496H194.239C194.352 16.5496 194.437 16.6341 194.437 16.7751V17.5079C194.437 17.6489 194.352 17.7334 194.239 17.7334H188.531C188.39 17.7334 188.306 17.6489 188.306 17.5079V6.82511C188.306 6.68417 188.39 6.59961 188.531 6.59961H189.391Z" fill="white"/>
<path d="M198.961 6.59961C199.073 6.59961 199.158 6.68417 199.158 6.82511V16.5496H203.809C203.922 16.5496 204.006 16.6341 204.006 16.7751V17.5079C204.006 17.6489 203.922 17.7334 203.809 17.7334H198.101C197.96 17.7334 197.875 17.6489 197.875 17.5079V6.82511C197.875 6.68417 197.96 6.59961 198.101 6.59961H198.961Z" fill="white"/>
<path d="M213.364 12.4061C213.364 12.5189 213.28 12.6034 213.167 12.6034H208.742V16.5496H213.716C213.857 16.5496 213.942 16.6341 213.942 16.7751V17.5079C213.942 17.6489 213.857 17.7334 213.716 17.7334H207.684C207.544 17.7334 207.459 17.6489 207.459 17.5079V6.82511C207.459 6.68417 207.544 6.59961 207.684 6.59961H213.59C213.731 6.59961 213.815 6.68417 213.815 6.82511V7.55796C213.815 7.6989 213.731 7.78346 213.59 7.78346H208.756V11.4618H213.181C213.294 11.4618 213.378 11.5464 213.378 11.6873V12.4061H213.364Z" fill="white"/>
<path d="M224.653 6.59961C224.794 6.59961 224.878 6.68417 224.878 6.82511V17.4938C224.878 17.6348 224.794 17.7193 224.653 17.7193H224.033C223.892 17.7193 223.779 17.6489 223.709 17.5361L218.987 8.9814V17.4938C218.987 17.6348 218.903 17.7193 218.762 17.7193H218.001C217.86 17.7193 217.775 17.6348 217.775 17.4938V6.82511C217.775 6.68417 217.86 6.59961 218.001 6.59961H218.748C218.903 6.59961 219.002 6.67008 219.072 6.78282L223.666 15.1121V6.82511C223.666 6.68417 223.751 6.59961 223.892 6.59961H224.653Z" fill="white"/>
<path d="M229.05 10.1512C229.05 7.96668 230.488 6.59961 232.7 6.59961H235.575C235.716 6.59961 235.801 6.68417 235.801 6.82511V7.55796C235.801 7.6989 235.716 7.78346 235.575 7.78346H232.686C231.192 7.78346 230.347 8.78409 230.347 10.1371V14.2101C230.347 15.563 231.206 16.5637 232.7 16.5637H235.068V13.2376H233.208C233.095 13.2376 232.982 13.1531 232.982 13.0403V12.3638C232.982 12.2511 233.081 12.1665 233.208 12.1665H236.069C236.21 12.1665 236.294 12.2511 236.294 12.3638V17.522C236.294 17.663 236.21 17.7475 236.069 17.7475H232.7C230.558 17.7475 229.05 16.3805 229.05 14.196V10.1512Z" fill="white"/>
<path d="M246.3 12.4061C246.3 12.5189 246.216 12.6034 246.103 12.6034H241.678V16.5496H246.653C246.794 16.5496 246.878 16.6341 246.878 16.7751V17.5079C246.878 17.6489 246.794 17.7334 246.653 17.7334H240.621C240.48 17.7334 240.395 17.6489 240.395 17.5079V6.82511C240.395 6.68417 240.48 6.59961 240.621 6.59961H246.526C246.667 6.59961 246.751 6.68417 246.751 6.82511V7.55796C246.751 7.6989 246.667 7.78346 246.526 7.78346H241.692V11.4618H246.117C246.23 11.4618 246.314 11.5464 246.314 11.6873V12.4061H246.3Z" fill="white"/>
<path d="M15.0834 18.1984C15.4217 18.1984 15.6472 18.4239 15.6472 18.7622V21.299C15.6472 21.6372 15.4217 21.8627 15.0834 21.8627H10.4608C6.5146 21.8627 3.82275 19.4387 3.82275 15.5912V9.65781C3.82275 5.79621 6.13408 3.38623 10.4608 3.38623H14.8015C15.1398 3.38623 15.3653 3.61173 15.3653 3.94997V6.48679C15.3653 6.82503 15.1398 7.05053 14.8015 7.05053H10.3762C8.85411 7.05053 7.89576 8.09344 7.89576 9.75647V15.5207C7.89576 17.1837 8.85411 18.2266 10.3762 18.2266H15.0834V18.1984Z" fill="white"/>
<path d="M31.3753 9.36198V15.8591C31.3753 19.7207 28.6694 22.1306 24.681 22.1306C20.6784 22.1306 17.9866 19.7066 17.9866 15.8591V9.36198C17.9866 5.50037 20.2979 3.09039 24.681 3.09039C28.6694 3.0763 31.3753 5.50037 31.3753 9.36198ZM22.0596 9.44654V15.7745C22.0596 17.4375 23.0461 18.4804 24.681 18.4804C26.3158 18.4804 27.3023 17.4375 27.3023 15.7745V9.44654C27.3023 7.78351 26.3158 6.74059 24.681 6.74059C23.0461 6.74059 22.0596 7.78351 22.0596 9.44654Z" fill="white"/>
<path d="M38.267 3.35815C38.6053 3.35815 38.8308 3.58365 38.8308 3.92189V18.1986H45.1587C45.497 18.1986 45.7224 18.424 45.7224 18.7623V21.2991C45.7224 21.6374 45.497 21.8628 45.1587 21.8628H35.3074C34.9691 21.8628 34.7437 21.6374 34.7437 21.2991V3.92189C34.7437 3.58365 34.9691 3.35815 35.3074 3.35815H38.267Z" fill="white"/>
<path d="M58.787 13.7168C58.787 14.0551 58.5615 14.2806 58.2233 14.2806H52.1772V18.1986H59.3507C59.689 18.1986 59.9145 18.424 59.9145 18.7623V21.2991C59.9145 21.6374 59.689 21.8628 59.3507 21.8628H48.6538C48.3156 21.8628 48.0901 21.6374 48.0901 21.2991V3.92189C48.0901 3.58365 48.3156 3.35815 48.6538 3.35815H59.0689C59.4071 3.35815 59.6326 3.58365 59.6326 3.92189V6.45871C59.6326 6.79695 59.4071 7.02245 59.0689 7.02245H52.1772V10.6867H58.2233C58.5615 10.6867 58.787 10.9122 58.787 11.2505V13.7168Z" fill="white"/>
<path d="M68.4976 21.8488H62.7898C62.4515 21.8488 62.226 21.6233 62.226 21.285V18.7482C62.226 18.41 62.4515 18.1845 62.7898 18.1845H68.3848C70.1324 18.1845 70.9498 17.4798 70.9498 16.4932C70.9498 15.8168 70.5834 15.2248 69.3996 14.802L66.4963 13.7591C63.6776 12.7444 62.2119 11.1659 62.2119 8.55864C62.2119 5.76813 64.4387 3.35815 68.258 3.35815H73.233C73.5712 3.35815 73.7967 3.58365 73.7967 3.92189V6.45871C73.7967 6.79695 73.5712 7.02245 73.233 7.02245H68.258C66.9332 7.02245 66.1722 7.64256 66.1722 8.45998C66.1722 8.88278 66.3977 9.53108 67.7788 10.0103L70.2029 10.8559C72.627 11.7015 74.9383 12.8289 74.9383 16.2255C74.9524 19.5092 72.4156 21.8488 68.4976 21.8488Z" fill="white"/>
<path d="M76.6861 7.02245C76.3478 7.02245 76.1223 6.79695 76.1223 6.45871V3.92189C76.1223 3.58365 76.3478 3.35815 76.6861 3.35815H88.1158C88.4541 3.35815 88.6796 3.58365 88.6796 3.92189V6.45871C88.6796 6.79695 88.4541 7.02245 88.1158 7.02245H84.4515V21.2991C84.4515 21.6374 84.2261 21.8628 83.8878 21.8628H80.9282C80.5899 21.8628 80.3644 21.6374 80.3644 21.2991V7.02245H76.6861Z" fill="white"/>
<path d="M101.829 13.7168C101.829 14.0551 101.603 14.2806 101.265 14.2806H95.2187V18.1986H102.392C102.73 18.1986 102.956 18.424 102.956 18.7623V21.2991C102.956 21.6374 102.73 21.8628 102.392 21.8628H91.6953C91.3571 21.8628 91.1316 21.6374 91.1316 21.2991V3.92189C91.1316 3.58365 91.3571 3.35815 91.6953 3.35815H102.11C102.449 3.35815 102.674 3.58365 102.674 3.92189V6.45871C102.674 6.79695 102.449 7.02245 102.11 7.02245H95.2187V10.6867H101.265C101.603 10.6867 101.829 10.9122 101.829 11.2505V13.7168Z" fill="white"/>
<path d="M110.073 21.285C110.073 21.6233 109.848 21.8488 109.509 21.8488H106.55C106.212 21.8488 105.986 21.6233 105.986 21.285V3.92189C105.986 3.58365 106.212 3.35815 106.55 3.35815H112.821C116.514 3.35815 119.206 5.69766 119.206 9.20693C119.206 11.5464 118.163 13.3222 116.472 14.3229L119.093 21.1018C119.262 21.5246 119.037 21.8347 118.727 21.8347H115.471C115.105 21.8347 114.851 21.6655 114.71 21.2991L112.483 15.2812H110.059V21.285H110.073ZM112.385 6.93789H110.073V11.7297H112.385C114.048 11.7297 115.062 10.7995 115.062 9.30559C115.048 7.86806 114.033 6.93789 112.385 6.93789Z" fill="white"/>
<path d="M143.165 3.59766C143.503 3.59766 143.728 3.82315 143.728 4.16139V18.4381H150.056C150.395 18.4381 150.62 18.6635 150.62 19.0018V21.5386C150.62 21.8769 150.395 22.1023 150.056 22.1023H140.205C139.867 22.1023 139.641 21.8769 139.641 21.5386V4.16139C139.641 3.82315 139.867 3.59766 140.205 3.59766H143.165Z" fill="white"/>
<path d="M129.226 24.0332C135.336 24.0332 140.29 19.08 140.29 12.9698C140.29 6.85973 135.336 1.90649 129.226 1.90649C123.116 1.90649 118.163 6.85973 118.163 12.9698C118.163 19.08 123.116 24.0332 129.226 24.0332Z" fill="#E66414"/>
<path d="M129.226 23.103C134.823 23.103 139.359 18.5663 139.359 12.9699C139.359 7.37345 134.823 2.83667 129.226 2.83667C123.63 2.83667 119.093 7.37345 119.093 12.9699C119.093 18.5663 123.63 23.103 129.226 23.103Z" fill="url(#paint0_linear_469_6252)"/>
<path d="M123.349 5.75391C122.645 6.31764 122.039 6.99413 121.517 7.74108C121.376 7.93839 121.658 8.14979 121.827 7.98067C122.377 7.34646 123.011 6.76863 123.744 6.31764L123.349 5.75391Z" fill="#F2BD23"/>
<path d="M124.04 5.24675L124.505 5.89504C125.844 5.21856 127.338 4.88032 128.817 4.96488V3.68237C127.042 3.75284 125.407 4.31658 124.04 5.24675Z" fill="#F2BD23"/>
<path d="M129.649 5.04944C131.016 5.26084 132.284 5.81048 133.327 6.642L134.328 5.19037C132.975 4.30249 131.368 3.75284 129.649 3.68237V5.04944Z" fill="#F2BD23"/>
<path d="M133.976 7.20569C134.864 8.07948 135.512 9.17877 135.822 10.419L137.922 9.65795C137.316 8.07948 136.315 6.72651 135.019 5.68359L133.976 7.20569Z" fill="#F2BD23"/>
<path d="M136.033 11.8705C136.061 12.8993 135.878 13.8577 135.54 14.7174L138.19 15.5066C138.415 14.7033 138.542 13.8436 138.542 12.9698C138.542 12.096 138.415 11.2645 138.19 10.4612L135.977 11.2645C136.005 11.4618 136.019 11.6732 136.033 11.8705Z" fill="#F2BD23"/>
<path d="M135.16 15.4927C134.652 16.3806 133.933 17.1134 133.074 17.649L135.033 20.2422C136.315 19.2133 137.316 17.8745 137.908 16.3101L135.16 15.4927Z" fill="#F2BD23"/>
<path d="M132.313 18.0435C131.439 18.424 130.452 18.6072 129.381 18.579V22.2997C131.228 22.2715 132.933 21.7078 134.356 20.7635L132.313 18.0435Z" fill="#F2BD23"/>
<path d="M136.555 9.02368L128.846 12.082C128.761 12.1101 128.677 12.1524 128.592 12.1947C128 12.547 127.803 13.3222 128.155 13.9141C128.507 14.506 129.283 14.7033 129.875 14.351C129.959 14.3087 130.03 14.2383 130.1 14.1819L136.555 9.02368Z" fill="white"/>
<defs>
<linearGradient id="paint0_linear_469_6252" x1="119.089" y1="12.9728" x2="139.366" y2="12.9728" gradientUnits="userSpaceOnUse">
<stop offset="0.1843" stop-color="#9A0000"/>
<stop offset="0.9984" stop-color="#4F0700"/>
</linearGradient>
</defs>
</svg>
