<svg width="380" height="38" viewBox="0 0 380 38" fill="none" xmlns="http://www.w3.org/2000/svg">
<path d="M246.144 25.5947C246.359 25.5947 246.487 25.7249 246.487 25.9418V27.0696C246.487 27.2865 246.359 27.4166 246.144 27.4166H241.924C238.625 27.4166 236.376 25.3128 236.376 21.951V15.7913C236.376 12.4295 238.561 10.3257 241.924 10.3257H245.952C246.166 10.3257 246.294 10.4558 246.294 10.6727V11.8005C246.294 12.0174 246.166 12.1476 245.952 12.1476H241.881C239.611 12.1476 238.325 13.6875 238.325 15.7696V22.0377C238.325 24.1199 239.611 25.6598 241.881 25.6598H246.144V25.5947Z" fill="#188338"/>
<path d="M262.597 10.2824C262.811 10.2824 262.94 10.4125 262.94 10.6294V27.0479C262.94 27.2648 262.811 27.395 262.597 27.395H261.29C261.119 27.395 260.947 27.2648 260.947 27.0479V19.5652H254.028V27.0479C254.028 27.2648 253.899 27.395 253.728 27.395H252.421C252.207 27.395 252.079 27.2648 252.079 27.0479V10.6294C252.079 10.4125 252.207 10.2824 252.421 10.2824H253.728C253.899 10.2824 254.028 10.4125 254.028 10.6294V17.7651H260.947V10.6294C260.947 10.4125 261.097 10.2824 261.29 10.2824H262.597Z" fill="#188338"/>
<path d="M279.306 27.3732C279.07 27.3732 278.942 27.2648 278.899 27.0696L277.763 23.4475H271.315L270.201 27.0696C270.159 27.2865 270.03 27.3732 269.794 27.3732H268.509C268.295 27.3732 268.231 27.2431 268.274 27.0696L273.479 10.6076C273.565 10.3907 273.693 10.304 273.908 10.304H275.214C275.45 10.304 275.578 10.4124 275.643 10.6076L280.891 27.0696C280.934 27.2431 280.87 27.3732 280.655 27.3732H279.306ZM277.271 21.7341L274.529 12.9717L271.83 21.7341H277.271Z" fill="#188338"/>
<path d="M287.875 10.2824C288.046 10.2824 288.174 10.4125 288.174 10.6294V25.5948H295.244C295.415 25.5948 295.544 25.7249 295.544 25.9418V27.0696C295.544 27.2865 295.415 27.4167 295.244 27.4167H286.568C286.354 27.4167 286.225 27.2865 286.225 27.0696V10.6294C286.225 10.4125 286.354 10.2824 286.568 10.2824H287.875Z" fill="#188338"/>
<path d="M302.42 10.2824C302.592 10.2824 302.72 10.4125 302.72 10.6294V25.5948H309.789C309.961 25.5948 310.089 25.7249 310.089 25.9418V27.0696C310.089 27.2865 309.961 27.4167 309.789 27.4167H301.114C300.899 27.4167 300.771 27.2865 300.771 27.0696V10.6294C300.771 10.4125 300.899 10.2824 301.114 10.2824H302.42Z" fill="#188338"/>
<path d="M324.314 19.2182C324.314 19.3917 324.185 19.5219 324.014 19.5219H317.287V25.5948H324.849C325.064 25.5948 325.192 25.7249 325.192 25.9418V27.0696C325.192 27.2865 325.064 27.4167 324.849 27.4167H315.681C315.466 27.4167 315.338 27.2865 315.338 27.0696V10.6294C315.338 10.4125 315.466 10.2824 315.681 10.2824H324.656C324.871 10.2824 324.999 10.4125 324.999 10.6294V11.7572C324.999 11.9741 324.871 12.1042 324.656 12.1042H317.309V17.7651H324.035C324.207 17.7651 324.335 17.8952 324.335 18.1121V19.2182H324.314Z" fill="#188338"/>
<path d="M341.473 10.2824C341.687 10.2824 341.815 10.4125 341.815 10.6294V27.0479C341.815 27.2648 341.687 27.395 341.473 27.395H340.53C340.316 27.395 340.144 27.2865 340.037 27.113L332.861 13.9478V27.0479C332.861 27.2648 332.732 27.395 332.518 27.395H331.361C331.147 27.395 331.019 27.2648 331.019 27.0479V10.6294C331.019 10.4125 331.147 10.2824 331.361 10.2824H332.497C332.732 10.2824 332.882 10.3908 332.989 10.5643L339.973 23.3825V10.6294C339.973 10.4125 340.102 10.2824 340.316 10.2824H341.473Z" fill="#188338"/>
<path d="M348.156 15.748C348.156 12.3862 350.341 10.2824 353.705 10.2824H358.075C358.289 10.2824 358.417 10.4125 358.417 10.6294V11.7572C358.417 11.9741 358.289 12.1042 358.075 12.1042H353.683C351.412 12.1042 350.127 13.6442 350.127 15.7263V21.9944C350.127 24.0766 351.434 25.6165 353.705 25.6165H357.303V20.4979H354.476C354.304 20.4979 354.133 20.3677 354.133 20.1942V19.1532C354.133 18.9796 354.283 18.8495 354.476 18.8495H358.824C359.039 18.8495 359.167 18.9796 359.167 19.1532V27.0913C359.167 27.3082 359.039 27.4384 358.824 27.4384H353.705C350.448 27.4384 348.156 25.3345 348.156 21.9727V15.748Z" fill="#188338"/>
<path d="M374.377 19.2182C374.377 19.3917 374.248 19.5219 374.077 19.5219H367.351V25.5948H374.913C375.127 25.5948 375.255 25.7249 375.255 25.9418V27.0696C375.255 27.2865 375.127 27.4167 374.913 27.4167H365.744C365.53 27.4167 365.401 27.2865 365.401 27.0696V10.6294C365.401 10.4125 365.53 10.2824 365.744 10.2824H374.72C374.934 10.2824 375.062 10.4125 375.062 10.6294V11.7572C375.062 11.9741 374.934 12.1042 374.72 12.1042H367.372V17.7651H374.098C374.27 17.7651 374.398 17.8952 374.398 18.1121V19.2182H374.377Z" fill="#188338"/>
<path d="M22.927 28.1324C23.4411 28.1324 23.7839 28.4794 23.7839 28.9999V32.9039C23.7839 33.4245 23.4411 33.7715 22.927 33.7715H15.9006C9.9024 33.7715 5.81079 30.041 5.81079 24.1199V14.9888C5.81079 9.04605 9.324 5.33723 15.9006 5.33723H22.4986C23.0127 5.33723 23.3554 5.68426 23.3554 6.20479V10.1088C23.3554 10.6293 23.0127 10.9764 22.4986 10.9764H15.772C13.4585 10.9764 12.0018 12.5814 12.0018 15.1407V24.0114C12.0018 26.5707 13.4585 28.1757 15.772 28.1757H22.927V28.1324Z" fill="#188338"/>
<path d="M47.6908 14.5334V24.532C47.6908 30.4748 43.5777 34.1836 37.5153 34.1836C31.4315 34.1836 27.3398 30.4531 27.3398 24.532V14.5334C27.3398 8.59062 30.8531 4.88181 37.5153 4.88181C43.5777 4.86012 47.6908 8.59062 47.6908 14.5334ZM33.5308 14.6635V24.4019C33.5308 26.9612 35.0304 28.5662 37.5153 28.5662C40.0003 28.5662 41.4998 26.9612 41.4998 24.4019V14.6635C41.4998 12.1042 40.0003 10.4993 37.5153 10.4993C35.0304 10.4993 33.5308 12.1042 33.5308 14.6635Z" fill="#188338"/>
<path d="M58.1661 5.29393C58.6802 5.29393 59.0229 5.64095 59.0229 6.16149V28.1324H68.6414C69.1556 28.1324 69.4983 28.4795 69.4983 29V32.904C69.4983 33.4245 69.1556 33.7716 68.6414 33.7716H53.6674C53.1533 33.7716 52.8105 33.4245 52.8105 32.904V6.16149C52.8105 5.64095 53.1533 5.29393 53.6674 5.29393H58.1661Z" fill="#188338"/>
<path d="M89.3567 21.2353C89.3567 21.7559 89.014 22.1029 88.4999 22.1029H79.3098V28.1324H90.2136C90.7277 28.1324 91.0705 28.4795 91.0705 29V32.904C91.0705 33.4245 90.7277 33.7716 90.2136 33.7716H73.9543C73.4402 33.7716 73.0974 33.4245 73.0974 32.904V6.16149C73.0974 5.64095 73.4402 5.29393 73.9543 5.29393H89.7852C90.2993 5.29393 90.6421 5.64095 90.6421 6.16149V10.0655C90.6421 10.586 90.2993 10.9331 89.7852 10.9331H79.3098V16.5722H88.4999C89.014 16.5722 89.3567 16.9192 89.3567 17.4398V21.2353Z" fill="#188338"/>
<path d="M104.116 33.7499H95.4406C94.9264 33.7499 94.5837 33.4029 94.5837 32.8823V28.9783C94.5837 28.4578 94.9264 28.1107 95.4406 28.1107H103.945C106.601 28.1107 107.844 27.0263 107.844 25.5081C107.844 24.467 107.287 23.5561 105.487 22.9054L101.075 21.3004C96.7902 19.7388 94.5623 17.3096 94.5623 13.2972C94.5623 9.00275 97.9469 5.29393 103.752 5.29393H111.314C111.828 5.29393 112.171 5.64095 112.171 6.16149V10.0655C112.171 10.586 111.828 10.9331 111.314 10.9331H103.752C101.739 10.9331 100.582 11.8874 100.582 13.1453C100.582 13.796 100.925 14.7937 103.024 15.5311L106.709 16.8325C110.393 18.1338 113.906 19.8689 113.906 25.096C113.928 30.1495 110.072 33.7499 104.116 33.7499Z" fill="#188338"/>
<path d="M116.563 10.9331C116.049 10.9331 115.706 10.586 115.706 10.0655V6.16149C115.706 5.64095 116.049 5.29393 116.563 5.29393H133.936C134.45 5.29393 134.793 5.64095 134.793 6.16149V10.0655C134.793 10.586 134.45 10.9331 133.936 10.9331H128.366V32.904C128.366 33.4245 128.024 33.7716 127.51 33.7716H123.011C122.497 33.7716 122.154 33.4245 122.154 32.904V10.9331H116.563Z" fill="#188338"/>
<path d="M154.78 21.2353C154.78 21.7559 154.437 22.1029 153.923 22.1029H144.733V28.1324H155.636C156.151 28.1324 156.493 28.4795 156.493 29V32.904C156.493 33.4245 156.151 33.7716 155.636 33.7716H139.377C138.863 33.7716 138.52 33.4245 138.52 32.904V6.16149C138.52 5.64095 138.863 5.29393 139.377 5.29393H155.208C155.722 5.29393 156.065 5.64095 156.065 6.16149V10.0655C156.065 10.586 155.722 10.9331 155.208 10.9331H144.733V16.5722H153.923C154.437 16.5722 154.78 16.9192 154.78 17.4398V21.2353Z" fill="#188338"/>
<path d="M167.312 32.8823C167.312 33.4029 166.969 33.7499 166.455 33.7499H161.956C161.442 33.7499 161.099 33.4029 161.099 32.8823V6.16149C161.099 5.64095 161.442 5.29393 161.956 5.29393H171.489C177.101 5.29393 181.193 8.8943 181.193 14.2949C181.193 17.8952 179.608 20.628 177.037 22.168L181.022 32.6004C181.279 33.251 180.936 33.7282 180.465 33.7282H175.516C174.959 33.7282 174.574 33.4679 174.359 32.904L170.975 23.6428H167.29V32.8823H167.312ZM170.825 10.8029H167.312V18.1772H170.825C173.353 18.1772 174.895 16.7457 174.895 14.4467C174.873 12.2344 173.331 10.8029 170.825 10.8029Z" fill="#188338"/>
<path d="M217.61 5.66257C218.125 5.66257 218.467 6.00959 218.467 6.53013V28.5011H228.086C228.6 28.5011 228.943 28.8481 228.943 29.3686V33.2726C228.943 33.7932 228.6 34.1402 228.086 34.1402H213.112C212.598 34.1402 212.255 33.7932 212.255 33.2726V6.53013C212.255 6.00959 212.598 5.66257 213.112 5.66257H217.61Z" fill="#188338"/>
<path d="M196.424 37.1116C205.711 37.1116 213.24 29.4889 213.24 20.0858C213.24 10.6827 205.711 3.05994 196.424 3.05994C187.137 3.05994 179.608 10.6827 179.608 20.0858C179.608 29.4889 187.137 37.1116 196.424 37.1116Z" fill="#E66414"/>
<path d="M196.424 35.6802C204.931 35.6802 211.827 28.6983 211.827 20.0858C211.827 11.4732 204.931 4.49139 196.424 4.49139C187.918 4.49139 181.022 11.4732 181.022 20.0858C181.022 28.6983 187.918 35.6802 196.424 35.6802Z" fill="url(#paint0_linear_501_5286)"/>
<path d="M187.491 8.98105C186.42 9.84861 185.499 10.8897 184.706 12.0392C184.492 12.3428 184.92 12.6682 185.178 12.4079C186.013 11.4319 186.977 10.5427 188.091 9.84861L187.491 8.98105Z" fill="#F2BD23"/>
<path d="M188.541 8.20023L189.248 9.19793C191.283 8.15686 193.554 7.63632 195.803 7.76645V5.79276C193.104 5.9012 190.619 6.76876 188.541 8.20023Z" fill="#F2BD23"/>
<path d="M197.067 7.89659C199.145 8.22192 201.073 9.06779 202.658 10.3474L204.179 8.11348C202.122 6.74707 199.68 5.9012 197.067 5.79276V7.89659Z" fill="#F2BD23"/>
<path d="M203.643 11.215C204.993 12.5597 205.978 14.2515 206.45 16.1601L209.641 14.9889C208.72 12.5597 207.199 10.4776 205.229 8.8726L203.643 11.215Z" fill="#F2BD23"/>
<path d="M206.771 18.3941C206.814 19.9774 206.535 21.4522 206.021 22.7752L210.049 23.9898C210.391 22.7535 210.584 21.4305 210.584 20.0858C210.584 18.7411 210.391 17.4614 210.049 16.2252L206.685 17.4614C206.728 17.7651 206.75 18.0904 206.771 18.3941Z" fill="#F2BD23"/>
<path d="M205.443 23.9681C204.671 25.3345 203.579 26.4623 202.272 27.2865L205.25 31.2773C207.199 29.694 208.72 27.6335 209.62 25.2261L205.443 23.9681Z" fill="#F2BD23"/>
<path d="M201.115 27.8938C199.787 28.4794 198.288 28.7614 196.66 28.718V34.4439C199.466 34.4005 202.058 33.5329 204.222 32.0798L201.115 27.8938Z" fill="#F2BD23"/>
<path d="M207.564 14.0129L195.846 18.7194C195.717 18.7628 195.589 18.8279 195.46 18.8929C194.56 19.4352 194.261 20.6281 194.796 21.539C195.332 22.4499 196.51 22.7536 197.41 22.2114C197.538 22.1463 197.645 22.0378 197.752 21.9511L207.564 14.0129Z" fill="white"/>
<defs>
<linearGradient id="paint0_linear_501_5286" x1="181.015" y1="20.0904" x2="211.837" y2="20.0904" gradientUnits="userSpaceOnUse">
<stop offset="0.1843" stop-color="#9A0000"/>
<stop offset="0.9984" stop-color="#4F0700"/>
</linearGradient>
</defs>
</svg>
