<svg width="416" height="135" viewBox="0 0 416 135" fill="none" xmlns="http://www.w3.org/2000/svg">
<path d="M380.677 76.2861H36.551V123.94H380.677V76.2861Z" fill="url(#paint0_linear_469_6249)"/>
<path d="M111.562 110.946C111.894 110.946 112.105 111.157 112.105 111.49V113.303C112.105 113.635 111.894 113.847 111.562 113.847H104.712C99.3718 113.847 95.6907 110.462 95.6907 105.053V95.142C95.6907 89.733 99.2511 86.3486 104.712 86.3486H111.26C111.592 86.3486 111.803 86.5602 111.803 86.8926V88.7056C111.803 89.038 111.592 89.2495 111.26 89.2495H104.652C100.971 89.2495 98.889 91.7274 98.889 95.0816V105.174C98.889 108.528 100.971 111.006 104.652 111.006H111.562V110.946Z" fill="#188338"/>
<path d="M138.325 86.3486C138.657 86.3486 138.869 86.5602 138.869 86.8926V113.303C138.869 113.635 138.657 113.847 138.325 113.847H136.183C135.881 113.847 135.64 113.635 135.64 113.303V101.246H124.385V113.303C124.385 113.635 124.174 113.847 123.872 113.847H121.73C121.398 113.847 121.187 113.635 121.187 113.303V86.8926C121.187 86.5602 121.398 86.3486 121.73 86.3486H123.872C124.174 86.3486 124.385 86.5602 124.385 86.8926V98.3753H135.64V86.8926C135.64 86.5602 135.881 86.3486 136.183 86.3486H138.325Z" fill="#188338"/>
<path d="M165.482 113.847C165.12 113.847 164.908 113.665 164.818 113.333L162.977 107.501H152.477L150.666 113.333C150.576 113.665 150.365 113.847 150.003 113.847H147.921C147.589 113.847 147.468 113.635 147.559 113.333L156.037 86.8321C156.158 86.4997 156.369 86.3184 156.761 86.3184H158.904C159.266 86.3184 159.477 86.4997 159.628 86.8321L168.167 113.333C168.258 113.635 168.137 113.847 167.805 113.847H165.482ZM162.193 104.751L157.727 90.6395L153.352 104.751H162.193Z" fill="#188338"/>
<path d="M179.452 86.3486C179.753 86.3486 179.965 86.5602 179.965 86.8926V110.976H191.461C191.762 110.976 191.974 111.188 191.974 111.52V113.333C191.974 113.666 191.762 113.877 191.461 113.877H177.34C177.008 113.877 176.796 113.666 176.796 113.333V86.9228C176.796 86.5904 177.008 86.3789 177.34 86.3789H179.452V86.3486Z" fill="#188338"/>
<path d="M203.108 86.3486C203.409 86.3486 203.621 86.5602 203.621 86.8926V110.976H215.117C215.418 110.976 215.63 111.188 215.63 111.52V113.333C215.63 113.666 215.418 113.877 215.117 113.877H200.996C200.664 113.877 200.452 113.666 200.452 113.333V86.9228C200.452 86.5904 200.664 86.3789 200.996 86.3789H203.108V86.3486Z" fill="#188338"/>
<path d="M238.712 100.702C238.712 101.004 238.501 101.216 238.199 101.216H227.276V110.976H239.557C239.889 110.976 240.1 111.188 240.1 111.52V113.333C240.1 113.666 239.889 113.877 239.557 113.877H224.621C224.289 113.877 224.078 113.666 224.078 113.333V86.9228C224.078 86.5904 224.289 86.3789 224.621 86.3789H239.195C239.527 86.3789 239.738 86.5904 239.738 86.9228V88.7359C239.738 89.0683 239.527 89.2798 239.195 89.2798H227.276V98.4056H238.229C238.531 98.4056 238.742 98.6171 238.742 98.9495V100.702H238.712Z" fill="#188338"/>
<path d="M266.653 86.3486C266.984 86.3486 267.196 86.5602 267.196 86.8926V113.303C267.196 113.635 266.984 113.847 266.653 113.847H265.114C264.782 113.847 264.48 113.666 264.329 113.394L252.622 92.2109V113.303C252.622 113.635 252.411 113.847 252.079 113.847H250.208C249.876 113.847 249.665 113.635 249.665 113.303V86.8926C249.665 86.5602 249.876 86.3486 250.208 86.3486H252.049C252.411 86.3486 252.682 86.5299 252.833 86.8019L264.209 107.441V86.8926C264.209 86.5602 264.42 86.3486 264.752 86.3486H266.653Z" fill="#188338"/>
<path d="M277.515 95.142C277.515 89.733 281.075 86.3486 286.537 86.3486H293.658C293.99 86.3486 294.201 86.5602 294.201 86.8926V88.7056C294.201 89.038 293.99 89.2495 293.658 89.2495H286.507C282.825 89.2495 280.743 91.7274 280.743 95.0816V105.174C280.743 108.529 282.886 111.006 286.567 111.006H292.421V102.757H287.834C287.532 102.757 287.291 102.545 287.291 102.243V100.581C287.291 100.279 287.532 100.068 287.834 100.068H294.895C295.227 100.068 295.438 100.279 295.438 100.581V113.363C295.438 113.696 295.227 113.907 294.895 113.907H286.567C281.256 113.907 277.545 110.523 277.545 105.114V95.142H277.515Z" fill="#188338"/>
<path d="M320.18 100.702C320.18 101.004 319.969 101.216 319.667 101.216H308.744V110.976H321.025C321.357 110.976 321.568 111.188 321.568 111.52V113.333C321.568 113.666 321.357 113.877 321.025 113.877H306.089C305.757 113.877 305.546 113.666 305.546 113.333V86.9228C305.546 86.5904 305.757 86.3789 306.089 86.3789H320.663C320.995 86.3789 321.206 86.5904 321.206 86.9228V88.7359C321.206 89.0683 320.995 89.2798 320.663 89.2798H308.744V98.4056H319.697C319.999 98.4056 320.21 98.6171 320.21 98.9495V100.702H320.18Z" fill="#188338"/>
<path d="M56.1335 50.8125C56.9783 50.8125 57.5215 51.3564 57.5215 52.2025V58.4878C57.5215 59.3339 56.9783 59.8779 56.1335 59.8779H44.728C34.982 59.8779 28.3137 53.8947 28.3137 44.3459V29.6299C28.3137 20.081 34.0165 14.0979 44.728 14.0979H55.4395C56.2844 14.0979 56.8275 14.6418 56.8275 15.4879V21.7732C56.8275 22.6193 56.2844 23.1632 55.4395 23.1632H44.5168C40.7451 23.1632 38.3916 25.7317 38.3916 29.8414V44.1344C38.3916 48.244 40.7451 50.8125 44.5168 50.8125H56.1335Z" fill="white"/>
<path d="M96.445 28.9045V45.0106C96.445 54.5594 89.7767 60.5425 79.8798 60.5425C69.983 60.5425 63.3147 54.5594 63.3147 45.0106V28.9045C63.3147 19.3557 69.0174 13.3726 79.8798 13.3726C89.7767 13.3726 96.445 19.3557 96.445 28.9045ZM73.3926 29.116V44.7991C73.3926 48.9087 75.8366 51.4772 79.8798 51.4772C83.9231 51.4772 86.3671 48.9087 86.3671 44.7991V29.116C86.3671 25.0064 83.9231 22.4379 79.8798 22.4379C75.8366 22.4379 73.3926 25.0064 73.3926 29.116Z" fill="white"/>
<path d="M113.493 14.0676C114.338 14.0676 114.881 14.6115 114.881 15.4576V50.8125H130.541C131.386 50.8125 131.929 51.3564 131.929 52.2025V58.4878C131.929 59.3339 131.386 59.8778 130.541 59.8778H106.191C105.346 59.8778 104.803 59.3339 104.803 58.4878V15.4576C104.803 14.6115 105.346 14.0676 106.191 14.0676H113.493Z" fill="white"/>
<path d="M164.244 39.7225C164.244 40.5686 163.701 41.1126 162.856 41.1126H147.891V50.8125H165.632C166.477 50.8125 167.02 51.3564 167.02 52.2025V58.4878C167.02 59.3339 166.477 59.8778 165.632 59.8778H139.17C138.326 59.8778 137.782 59.3339 137.782 58.4878V15.4576C137.782 14.6115 138.326 14.0676 139.17 14.0676H164.938C165.783 14.0676 166.326 14.6115 166.326 15.4576V21.743C166.326 22.589 165.783 23.133 164.938 23.133H147.891V32.1983H162.856C163.701 32.1983 164.244 32.7422 164.244 33.5883V39.7225Z" fill="white"/>
<path d="M188.262 59.8779H174.141C173.296 59.8779 172.753 59.3339 172.753 58.4878V52.2025C172.753 51.3564 173.296 50.8125 174.141 50.8125H187.991C192.306 50.8125 194.327 49.0599 194.327 46.6425C194.327 44.9805 193.422 43.4998 190.495 42.4724L183.314 39.9039C176.344 37.3958 172.723 33.4977 172.723 27.0009C172.723 20.1112 178.215 14.0979 187.689 14.0979H200C200.845 14.0979 201.388 14.6418 201.388 15.4879V21.7732C201.388 22.6193 200.845 23.1632 200 23.1632H187.689C184.43 23.1632 182.529 24.7043 182.529 26.7289C182.529 27.7866 183.073 29.3881 186.482 30.5666L192.456 32.6516C198.431 34.7367 204.164 37.5167 204.164 45.9777C204.194 54.076 197.918 59.8779 188.262 59.8779Z" fill="white"/>
<path d="M208.509 23.133C207.664 23.133 207.121 22.589 207.121 21.743V15.4576C207.121 14.6115 207.664 14.0676 208.509 14.0676H236.781C237.626 14.0676 238.169 14.6115 238.169 15.4576V21.743C238.169 22.589 237.626 23.133 236.781 23.133H227.729V58.4878C227.729 59.3339 227.186 59.8778 226.341 59.8778H219.039C218.194 59.8778 217.651 59.3339 217.651 58.4878V23.133H208.509Z" fill="white"/>
<path d="M270.666 39.7225C270.666 40.5686 270.122 41.1126 269.278 41.1126H254.312V50.8125H272.054C272.898 50.8125 273.442 51.3564 273.442 52.2025V58.4878C273.442 59.3339 272.898 59.8778 272.054 59.8778H245.592C244.747 59.8778 244.204 59.3339 244.204 58.4878V15.4576C244.204 14.6115 244.747 14.0676 245.592 14.0676H271.36C272.204 14.0676 272.748 14.6115 272.748 15.4576V21.743C272.748 22.589 272.204 23.133 271.36 23.133H254.312V32.1983H269.278C270.122 32.1983 270.666 32.7422 270.666 33.5883V39.7225Z" fill="white"/>
<path d="M291.063 58.4576C291.063 59.3037 290.52 59.8476 289.675 59.8476H282.373C281.528 59.8476 280.985 59.3037 280.985 58.4576V15.4576C280.985 14.6115 281.528 14.0676 282.373 14.0676H297.882C306.994 14.0676 313.693 19.8392 313.693 28.5722C313.693 34.3438 311.128 38.7556 306.934 41.2636L313.421 58.0647C313.844 59.1224 313.27 59.8778 312.516 59.8778H304.429C303.524 59.8778 302.891 59.4548 302.559 58.5482L297.067 43.6206H291.093V58.4576H291.063ZM296.765 22.9214H291.063V34.7668H296.765C300.869 34.7668 303.373 32.4703 303.373 28.7837C303.373 25.218 300.869 22.9214 296.765 22.9214Z" fill="white"/>
<path d="M372.893 14.6416C373.737 14.6416 374.28 15.1855 374.28 16.0316V51.3864H389.94C390.785 51.3864 391.328 51.9304 391.328 52.7765V59.0315C391.328 59.8776 390.785 60.4216 389.94 60.4216H365.591C364.746 60.4216 364.203 59.8776 364.203 59.0315V16.0316C364.203 15.1855 364.746 14.6416 365.591 14.6416H372.893Z" fill="white"/>
<path d="M338.676 66.6769C354.674 66.6769 367.642 53.6891 367.642 37.6678C367.642 21.6465 354.674 8.65869 338.676 8.65869C322.678 8.65869 309.71 21.6465 309.71 37.6678C309.71 53.6891 322.678 66.6769 338.676 66.6769Z" fill="#E66414"/>
<path d="M338.676 64.2293C353.324 64.2293 365.198 52.3374 365.198 37.6679C365.198 22.9984 353.324 11.1064 338.676 11.1064C324.028 11.1064 312.154 22.9984 312.154 37.6679C312.154 52.3374 324.028 64.2293 338.676 64.2293Z" fill="url(#paint1_linear_469_6249)"/>
<path d="M323.288 18.7212C321.447 20.2019 319.848 21.9545 318.52 23.9187C318.158 24.4324 318.913 25.0065 319.335 24.523C320.783 22.8912 322.443 21.3501 324.344 20.1716L323.288 18.7212Z" fill="#F2BD23"/>
<path d="M325.068 17.3916L326.275 19.0838C329.775 17.3312 333.667 16.4246 337.56 16.6362V13.282C332.943 13.4935 328.689 14.9742 325.068 17.3916Z" fill="#F2BD23"/>
<path d="M339.792 16.8779C343.353 17.4218 346.672 18.9025 349.418 21.048L352.043 17.2405C348.482 14.9137 344.318 13.4633 339.792 13.282V16.8779Z" fill="#F2BD23"/>
<path d="M351.077 22.5286C353.401 24.8252 355.121 27.6958 355.935 30.9594L361.457 28.965C359.888 24.8554 357.233 21.2595 353.853 18.5701L351.077 22.5286Z" fill="#F2BD23"/>
<path d="M356.478 34.767C356.539 37.4866 356.086 39.9946 355.181 42.2307L362.121 44.3158C362.724 42.2005 363.056 39.9644 363.056 37.6679C363.056 35.4015 362.724 33.1956 362.151 31.1106L356.358 33.2258C356.418 33.7093 356.448 34.223 356.478 34.767Z" fill="#F2BD23"/>
<path d="M354.215 44.2554C352.888 46.5821 351.017 48.5161 348.754 49.9061L353.883 56.7051C357.233 54.0157 359.858 50.4802 361.397 46.4008L354.215 44.2554Z" fill="#F2BD23"/>
<path d="M346.732 50.9333C344.439 51.9003 341.844 52.414 339.038 52.3234V62.0535C343.866 61.9931 348.331 60.4822 352.073 58.0043L346.732 50.9333Z" fill="#F2BD23"/>
<path d="M357.866 27.303L337.71 35.3107C337.469 35.3711 337.258 35.492 337.047 35.6129C335.478 36.5496 334.965 38.5742 335.9 40.1153C336.835 41.6866 338.857 42.2004 340.396 41.2636C340.607 41.1427 340.818 40.9916 340.969 40.8103L357.866 27.303Z" fill="white"/>
<defs>
<linearGradient id="paint0_linear_469_6249" x1="36.5581" y1="100.092" x2="380.681" y2="100.092" gradientUnits="userSpaceOnUse">
<stop stop-color="white" stop-opacity="0"/>
<stop offset="0.1866" stop-color="white"/>
<stop offset="0.857" stop-color="white"/>
<stop offset="0.9853" stop-color="white" stop-opacity="0"/>
</linearGradient>
<linearGradient id="paint1_linear_469_6249" x1="312.135" y1="37.6549" x2="365.208" y2="37.6549" gradientUnits="userSpaceOnUse">
<stop offset="0.1843" stop-color="#9A0000"/>
<stop offset="0.9984" stop-color="#4F0700"/>
</linearGradient>
</defs>
</svg>
