<svg width="121" height="121" viewBox="0 0 121 121" fill="none" xmlns="http://www.w3.org/2000/svg">
<path d="M60.584 119.005C92.9037 119.005 119.104 92.8047 119.104 60.485C119.104 28.1653 92.9037 1.96497 60.584 1.96497C28.2643 1.96497 2.06396 28.1653 2.06396 60.485C2.06396 92.8047 28.2643 119.005 60.584 119.005Z" fill="#E66414"/>
<path d="M60.5841 112.385C89.2477 112.385 112.484 89.1485 112.484 60.485C112.484 31.8214 89.2477 8.58496 60.5841 8.58496C31.9205 8.58496 8.68408 31.8214 8.68408 60.485C8.68408 89.1485 31.9205 112.385 60.5841 112.385Z" fill="#9A0000"/>
<path d="M55.0841 60.775L18.0241 39.375C11.2141 53.135 11.1841 69.935 19.4441 84.235C27.6941 98.535 42.2641 106.905 57.5841 107.895V65.095C57.5841 63.315 56.6341 61.665 55.0941 60.775H55.0841Z" fill="#F2BD23"/>
<path d="M63.0739 55.575L100.134 34.175C86.3739 13.435 58.6739 6.71501 36.8339 19.335C30.2639 23.125 24.9539 28.255 21.0239 34.175L58.0939 55.575C59.6339 56.465 61.5339 56.465 63.0739 55.575Z" fill="#F2BD23"/>
<path d="M63.584 65.085V107.885C70.674 107.445 77.774 105.405 84.334 101.615C106.184 89.005 114.214 61.655 103.134 39.365L66.074 60.765C64.534 61.655 63.584 63.305 63.584 65.085Z" fill="#F2BD23"/>
</svg>
