<svg width="121" height="121" viewBox="0 0 121 121" fill="none" xmlns="http://www.w3.org/2000/svg">
<path d="M60.1308 119.005C92.4505 119.005 118.651 92.8047 118.651 60.485C118.651 28.1653 92.4505 1.96497 60.1308 1.96497C27.8111 1.96497 1.61084 28.1653 1.61084 60.485C1.61084 92.8047 27.8111 119.005 60.1308 119.005Z" fill="#E66414"/>
<path d="M60.131 112.385C88.7945 112.385 112.031 89.1485 112.031 60.485C112.031 31.8214 88.7945 8.58496 60.131 8.58496C31.4674 8.58496 8.23096 31.8214 8.23096 60.485C8.23096 89.1485 31.4674 112.385 60.131 112.385Z" fill="#9A0000"/>
<path d="M62.6208 55.575L99.6808 34.175C85.9208 13.435 58.2208 6.71501 36.3808 19.335C29.8108 23.125 24.5008 28.255 20.5708 34.175L57.6408 55.575C59.1808 56.465 61.0808 56.465 62.6208 55.575Z" fill="#F2BD23"/>
</svg>
