<svg width="121" height="121" viewBox="0 0 121 121" fill="none" xmlns="http://www.w3.org/2000/svg">
<path d="M59.8576 119.005C92.1774 119.005 118.378 92.8047 118.378 60.485C118.378 28.1653 92.1774 1.96497 59.8576 1.96497C27.5379 1.96497 1.33765 28.1653 1.33765 60.485C1.33765 92.8047 27.5379 119.005 59.8576 119.005Z" fill="#E66414"/>
<path d="M59.8575 112.385C88.5211 112.385 111.758 89.1485 111.758 60.485C111.758 31.8214 88.5211 8.58496 59.8575 8.58496C31.1939 8.58496 7.95752 31.8214 7.95752 60.485C7.95752 89.1485 31.1939 112.385 59.8575 112.385Z" fill="#9A0000"/>
<path d="M62.3476 55.575L99.4076 34.175C85.6476 13.435 57.9476 6.71501 36.1076 19.335C29.5376 23.125 24.2276 28.255 20.2976 34.175L57.3676 55.575C58.9076 56.465 60.8076 56.465 62.3476 55.575Z" fill="#F2BD23"/>
<path d="M62.8577 65.085V107.885C69.9477 107.445 77.0477 105.405 83.6077 101.615C105.458 89.005 113.488 61.655 102.408 39.365L65.3477 60.765C63.8077 61.655 62.8577 63.305 62.8577 65.085Z" fill="#F2BD23"/>
</svg>
