<svg width="89" height="23" viewBox="0 0 89 23" fill="none" xmlns="http://www.w3.org/2000/svg">
<g clip-path="url(#clip0_469_6253)">
<path d="M27.3027 4.6521C24.983 4.6521 23.2702 5.14436 22.0483 6.56214C20.6552 8.14671 20.9546 10.366 21.9648 11.686C22.9749 13.0062 26.1235 13.769 27.3027 14.9285C27.5432 15.1834 27.7222 15.4899 27.8259 15.8244C27.9297 16.159 27.9555 16.5128 27.9015 16.8588C27.6693 18.5838 25.7183 18.417 25.2417 18.3966C24.4471 18.3804 23.6764 18.1229 23.032 17.6582C22.6671 17.3983 22.3263 17.1063 22.0137 16.7856L21.1562 19.3486C21.1562 19.3486 22.7652 20.1073 25.8812 20.1073C28.3862 20.1073 30.1459 19.4544 31.4737 17.5362C32.6957 15.7889 31.8811 13.7202 31.0196 12.8761C29.653 11.503 28.0176 11.2182 26.7773 10.4696C25.704 9.82486 24.7834 9.06613 25.038 7.78667C25.2926 6.50721 26.3231 5.9702 27.8506 5.9702C29.653 5.9702 30.0766 6.94658 30.2701 7.30256C30.5308 7.82939 31.0012 8.65321 31.0012 8.65321L31.2375 8.6166C31.2599 8.5393 31.2192 8.38267 31.2375 8.15689C31.2823 7.41647 31.3699 6.33838 31.3699 6.33838C31.3699 6.33838 31.433 5.76273 31.0847 5.4332C30.8811 5.22979 30.2497 4.98162 29.2233 4.82296C28.5921 4.71549 27.9532 4.65971 27.3129 4.65616" fill="white"/>
<path d="M34.1466 5.18262H45.0995C46.2584 5.18262 46.1525 6.16306 46.1525 6.16306V8.97218L45.8999 8.88878C45.6392 8.35991 45.5761 8.13819 45.0853 7.63373C44.5049 7.04587 44.014 7.08859 44.014 7.08859H41.5701V17.2002C41.5577 17.4568 41.6094 17.7124 41.7207 17.9439C41.832 18.1754 41.9994 18.3757 42.2076 18.5265C42.6438 18.8163 43.1119 19.0552 43.6026 19.2384C43.8063 19.3421 43.7533 19.6167 43.7533 19.6167H39.1811C37.6211 19.6167 37.725 18.2763 37.725 18.2763V7.08859H35.2342C35.2342 7.08859 34.7454 7.04587 34.1629 7.63373C33.6701 8.13819 33.6069 8.35991 33.3483 8.88878L33.0835 8.97218V6.16306C33.0835 6.16306 32.9634 5.18262 34.1426 5.18262" fill="white"/>
<path d="M47.045 5.18016H58.2647C58.2647 5.18016 59.2952 5.10287 59.2952 6.07721C59.2952 7.05155 59.2484 8.97786 59.2484 8.97786C59.1281 8.93611 59.0288 8.84932 58.9714 8.73581C58.8655 8.53239 58.6048 7.87944 58.1567 7.51533C57.781 7.21497 57.3099 7.05909 56.8289 7.07596H53.2281V11.0262H56.3197C56.5743 11.0178 56.8275 11.0664 57.0608 11.1685C57.2941 11.2706 57.5015 11.4236 57.6679 11.6162C58.118 12.1511 58.0549 13.4733 58.0549 13.4733L57.6924 13.2088C57.5117 13.1523 57.3237 13.1228 57.1344 13.1214H53.2281V17.4296H57.505C57.7524 17.4384 57.9986 17.3908 58.2248 17.2903C58.451 17.1898 58.6513 17.0392 58.8105 16.8499C59.2178 16.3435 59.7779 15.1473 59.7779 15.1473L60.008 14.8178H60.1832L59.9408 19.5919L51.1671 19.6142C51.1671 19.6142 49.2588 19.7221 49.2588 18.1192V7.74518C49.2909 7.35007 49.2089 6.95403 49.0225 6.60404C48.7252 6.07721 47.8902 6.02839 47.4849 5.76395C46.9452 5.41612 47.049 5.18016 47.049 5.18016" fill="white"/>
<path d="M75.8765 5.18016H87.0901C87.0901 5.18016 88.1084 5.10287 88.1084 6.07721C88.1084 7.05155 88.086 8.97786 88.086 8.97786C87.9635 8.93729 87.8619 8.85039 87.8029 8.73581C87.697 8.53239 87.4404 7.87944 86.9882 7.51533C86.6103 7.21597 86.1383 7.06027 85.6563 7.07596H82.0515V11.0262H85.1451C85.3999 11.0181 85.6533 11.0668 85.8869 11.1689C86.1205 11.271 86.3284 11.4237 86.4954 11.6162C86.9495 12.1511 86.8823 13.4733 86.8823 13.4733L86.4954 13.2088C86.3212 13.1517 86.139 13.1221 85.9557 13.1214H82.0494V17.4296H86.3263C86.5739 17.4395 86.8204 17.3923 87.0467 17.2918C87.2731 17.1912 87.4733 17.0401 87.6318 16.8499C88.0391 16.3435 88.5992 15.1473 88.5992 15.1473L88.8375 14.8178H89.0004L88.7682 19.5919L79.9945 19.6142C79.9945 19.6142 78.0862 19.7221 78.0862 18.1192V7.74518C78.1166 7.35221 78.0413 6.95826 77.8683 6.60404C77.5465 6.07721 76.7115 6.02839 76.3041 5.76395C75.7665 5.41612 75.8765 5.18016 75.8765 5.18016Z" fill="white"/>
<path d="M59.9884 5.1827H64.1248C64.4644 5.17951 64.7983 5.26958 65.0902 5.44307C65.9435 5.98007 66.418 7.2575 66.418 7.2575L69.5239 14.6963L72.7071 7.48532C72.8374 7.2489 72.9159 6.98749 72.9372 6.71845C72.9372 6.29333 72.2937 6.02483 72.2937 6.02483L71.3487 5.56918L71.1165 5.35153V5.18676H74.0452C74.2381 5.20048 74.4256 5.25665 74.5943 5.35125C74.7629 5.44585 74.9085 5.57654 75.0207 5.73394C75.4647 6.44589 74.9087 7.47922 74.9087 7.47922L74.5421 8.29286L68.6889 21.5146L62.0414 6.87916C61.903 6.60446 61.7223 6.35323 61.5057 6.13467C61.1819 5.86006 60.239 5.53663 60.239 5.53663L59.9844 5.37798L59.9884 5.1827Z" fill="white"/>
<path d="M3.87012 0.208252H17.5256C17.6688 0.210432 17.8102 0.240844 17.9416 0.297743C18.073 0.354642 18.1919 0.436906 18.2914 0.539813C18.4624 0.750009 18.5609 1.00966 18.5724 1.28024L18.7761 4.43718C18.7761 4.43718 18.6926 4.77485 18.4971 4.35582C18.3016 3.93679 17.9228 3.16586 17.3973 2.78141C17.0572 2.52104 16.6071 2.34407 15.6397 2.34407H11.0492V7.18935C11.4314 7.18387 11.813 7.22416 12.1856 7.30936C12.5054 7.38869 15.0369 8.25523 16.3485 8.25523C17.66 8.25523 19.5154 7.51683 19.5154 7.51683C19.5154 7.51683 18.4441 8.97937 17.4625 9.59368C16.4808 10.208 15.1856 10.4501 14.377 10.4501C13.3587 10.4501 11.4097 9.81743 10.316 9.49604C9.59017 9.27579 8.8342 9.17077 8.07573 9.18482C6.72138 9.18482 6.31406 9.71775 6.31406 9.71775L6.1715 9.75437C6.12669 9.71165 6.42607 9.45942 6.42607 9.08922V2.60038C6.42323 2.399 6.37975 2.20027 6.29821 2.01607C6.21667 1.83188 6.09876 1.66601 5.95154 1.52839C5.4709 1.0219 4.52795 1.12157 4.07378 0.686269C3.73571 0.362845 3.87012 0.208252 3.87012 0.208252Z" fill="white"/>
<path d="M11.0486 13.3778V17.1999H16.5597C17.6513 17.1999 18.2684 16.488 18.6656 16.0385C19.1482 15.4953 19.5372 14.4356 19.6513 14.3299L19.9588 14.2444L19.5515 19.6125H8.45195C8.45195 19.6125 7.43364 19.7162 6.80229 18.9514C6.35424 18.3818 6.41534 17.1959 6.41534 17.1959V13.6891C4.93675 13.2965 3.58444 12.7391 2.24028 12.7391C1.47154 12.7477 0.711395 12.9017 0 13.1928C0 13.1928 2.24028 10.6135 4.55183 10.6135C6.05078 10.6135 8.23607 11.8035 10.1831 11.8035C12.1301 11.8035 13.3622 11.057 13.3622 11.057C12.7451 11.9699 11.96 12.7575 11.0486 13.3778Z" fill="white"/>
</g>
<defs>
<clipPath id="clip0_469_6253">
<rect width="89" height="21.973" fill="white" transform="translate(0 0.208252)"/>
</clipPath>
</defs>
</svg>
